# This file uses centimeters as units for non-parametric coordinates.

mtllib LiquidBlue.mtl
g default
v 0.299589 1.432835 0.274900
v 0.291340 1.419292 0.251166
v 0.278994 1.399022 0.235307
v 0.264429 1.375112 0.229739
v 0.249866 1.351202 0.235307
v 0.237519 1.330932 0.251166
v 0.229270 1.317388 0.274900
v 0.226373 1.312633 0.302896
v 0.229270 1.317388 0.330892
v 0.237519 1.330932 0.354626
v 0.249866 1.351202 0.370485
v 0.264429 1.375112 0.376053
v 0.278994 1.399022 0.370485
v 0.291340 1.419292 0.354626
v 0.299589 1.432835 0.330892
v 0.302487 1.437591 0.302896
v 1.190812 0.789243 0.286461
v 0.253010 1.360468 0.286461
v 0.384411 1.459459 0.232430
v 0.390852 1.470033 0.294679
v 0.384411 1.459459 0.356928
v 0.366068 1.429343 0.409700
v 0.338615 1.384274 0.444962
v 0.306233 1.331111 0.457344
v 0.273849 1.277948 0.444962
v 0.246398 1.232878 0.409700
v 0.228055 1.202763 0.356928
v 0.221614 1.192188 0.294679
v 0.228055 1.202763 0.232429
v 0.246398 1.232878 0.179657
v 0.273849 1.277948 0.144396
v 0.306233 1.331111 0.132014
v 0.338615 1.384274 0.144396
v 0.366068 1.429343 0.179657
v 0.511892 1.526531 0.169022
v 0.420980 1.510088 0.194233
v 0.393859 1.465289 0.116171
v 0.477428 1.469632 0.069462
v 0.353295 1.398445 0.064110
v 0.425726 1.384550 0.002938
v 0.305466 1.319736 0.045936
v 0.364748 1.284183 -0.020423
v 0.257653 1.241135 0.064352
v 0.303751 1.183827 0.002937
v 0.217114 1.174562 0.116516
v 0.252053 1.098743 0.069461
v 0.190026 1.130096 0.194501
v 0.217475 1.041911 0.169022
v 0.180470 1.114474 0.286462
v 0.205308 1.021970 0.286461
v 0.189880 1.130077 0.378461
v 0.217398 1.041958 0.403901
v 0.216843 1.174565 0.456546
v 0.251901 1.098833 0.503461
v 0.257286 1.241231 0.508837
v 0.303598 1.183919 0.569985
v 0.305082 1.319970 0.527330
v 0.364559 1.284296 0.593345
v 0.352959 1.398805 0.509136
v 0.425527 1.384669 0.569985
v 0.393609 1.465690 0.456965
v 0.477199 1.469769 0.503461
v 0.420837 1.510325 0.378744
v 0.511790 1.526592 0.403901
v 0.430445 1.525896 0.286462
v 0.523986 1.546516 0.286461
v 1.315814 0.994463 0.187011
v 1.283924 1.050459 0.169022
v 1.286583 0.946474 0.102663
v 1.249452 0.993564 0.069462
v 1.242785 0.874570 0.046098
v 1.197809 0.908447 0.002938
v 1.191009 0.789567 0.025959
v 1.136893 0.808042 -0.020423
v 1.139091 0.704333 0.045443
v 1.075976 0.707639 0.002937
v 1.094954 0.631870 0.101737
v 1.024334 0.622520 0.069461
v 1.065383 0.583321 0.186356
v 0.989793 0.565667 0.169022
v 1.054959 0.566208 0.286386
v 0.977711 0.545674 0.286461
v 1.065315 0.583210 0.386470
v 0.989863 0.565625 0.403901
v 1.094858 0.631712 0.471218
v 1.024334 0.622520 0.503461
v 1.139024 0.704221 0.527642
v 1.075976 0.707638 0.569985
v 1.191009 0.789567 0.547181
v 1.136893 0.808042 0.593345
v 1.242853 0.874681 0.526989
v 1.197809 0.908446 0.569985
v 1.286678 0.946631 0.470294
v 1.249452 0.993563 0.503461
v 1.315881 0.994575 0.385816
v 1.283994 1.050416 0.403901
v 1.326096 1.011346 0.286386
v 1.296076 1.070409 0.286461
vt 0.375000 0.688440
vt 0.390625 0.688440
vt 0.406250 0.688440
vt 0.421875 0.688440
vt 0.437500 0.688440
vt 0.453125 0.688440
vt 0.468750 0.688440
vt 0.484375 0.688440
vt 0.500000 0.688440
vt 0.515625 0.688440
vt 0.531250 0.688440
vt 0.546875 0.688440
vt 0.562500 0.688440
vt 0.578125 0.688440
vt 0.593750 0.688440
vt 0.609375 0.688440
vt 0.625000 0.688440
vt 0.644356 0.783956
vt 0.610485 0.733265
vt 0.559794 0.699394
vt 0.500000 0.687500
vt 0.440206 0.699394
vt 0.389515 0.733265
vt 0.355644 0.783956
vt 0.343750 0.843750
vt 0.355644 0.903544
vt 0.389515 0.954235
vt 0.440206 0.988106
vt 0.500000 1.000000
vt 0.559794 0.988106
vt 0.610485 0.954235
vt 0.644356 0.903544
vt 0.656250 0.843750
vt 0.500000 0.837500
vt 0.625000 0.687549
vt 0.625000 0.663091
vt 0.376351 0.687076
vt 0.392102 0.687062
vt 0.375000 0.687549
vt 0.407630 0.687050
vt 0.390625 0.687549
vt 0.422966 0.687040
vt 0.406250 0.687549
vt 0.438159 0.687035
vt 0.421875 0.687549
vt 0.453200 0.687034
vt 0.437500 0.687549
vt 0.468355 0.687034
vt 0.453125 0.687549
vt 0.483495 0.687038
vt 0.468750 0.687549
vt 0.498748 0.687046
vt 0.484375 0.687549
vt 0.514168 0.687057
vt 0.500000 0.687549
vt 0.529799 0.687070
vt 0.515625 0.687549
vt 0.545661 0.687084
vt 0.531250 0.687549
vt 0.561735 0.687096
vt 0.546875 0.687549
vt 0.577957 0.687103
vt 0.562500 0.687549
vt 0.594213 0.687100
vt 0.578125 0.687549
vt 0.610375 0.687090
vt 0.593750 0.687549
vt 0.625000 0.687070
vt 0.609375 0.687549
vt 0.643842 0.096647
vt 0.643797 0.096437
vt 0.610153 0.046078
vt 0.609927 0.045752
vt 0.559675 0.012171
vt 0.559237 0.011889
vt 0.500000 0.000105
vt 0.499443 0.000111
vt 0.440206 0.011894
vt 0.439771 0.012184
vt 0.389515 0.045765
vt 0.389293 0.046097
vt 0.355644 0.096456
vt 0.355602 0.096667
vt 0.343750 0.156250
vt 0.355602 0.215833
vt 0.355644 0.216044
vt 0.389293 0.266403
vt 0.389515 0.266735
vt 0.439771 0.300316
vt 0.440206 0.300606
vt 0.499444 0.312389
vt 0.500000 0.312386
vt 0.559237 0.300602
vt 0.559674 0.300304
vt 0.609927 0.266723
vt 0.610153 0.266384
vt 0.643798 0.216026
vt 0.643842 0.215809
vt 0.655691 0.156228
vt 0.572185 0.123225
vt 0.555278 0.097849
vt 0.529947 0.080832
vt 0.500000 0.074777
vt 0.469972 0.080644
vt 0.444443 0.097586
vt 0.427339 0.123049
vt 0.421310 0.153148
vt 0.427300 0.183261
vt 0.444388 0.208758
vt 0.469932 0.225732
vt 0.500000 0.231607
vt 0.529986 0.225527
vt 0.555334 0.208464
vt 0.572225 0.183043
vt 0.500000 0.150000
vt 0.578133 0.153125
vt 0.375000 0.367263
vt 0.390625 0.367204
vt 0.375000 0.663091
vt 0.406250 0.367141
vt 0.390625 0.663031
vt 0.421875 0.367066
vt 0.406250 0.662993
vt 0.437500 0.366991
vt 0.421875 0.662944
vt 0.453125 0.366928
vt 0.437500 0.662903
vt 0.468750 0.366901
vt 0.453125 0.662864
vt 0.484375 0.366871
vt 0.468750 0.662852
vt 0.500000 0.366871
vt 0.484375 0.662858
vt 0.515625 0.366928
vt 0.500000 0.662885
vt 0.531250 0.366991
vt 0.515625 0.662928
vt 0.546875 0.367066
vt 0.531250 0.662968
vt 0.562500 0.367141
vt 0.546875 0.663024
vt 0.578125 0.367204
vt 0.562500 0.663077
vt 0.593750 0.367233
vt 0.578125 0.663128
vt 0.609375 0.367261
vt 0.593750 0.663134
vt 0.625000 0.367261
vt 0.609375 0.663116
vn -0.484149 0.854339 -0.188955
vn -0.552358 0.758100 -0.346677
vn -0.856086 0.516821 -0.003521
vn -0.646807 0.620546 -0.443355
vn -0.750774 0.466069 -0.468101
vn -0.848564 0.318321 -0.422623
vn -0.927579 0.196900 -0.317535
vn -0.978738 0.116240 -0.169000
vn -0.996340 0.085400 0.003582
vn -0.977856 0.108448 0.178988
vn -0.924102 0.184482 0.334668
vn -0.840144 0.306358 0.447552
vn -0.736423 0.459046 0.496948
vn -0.628656 0.619679 0.469882
vn -0.535426 0.760925 0.366487
vn -0.473969 0.857018 0.202173
vn -0.455879 0.890026 0.005286
vn -0.659368 0.751814 -0.003107
vn -0.682527 0.722013 -0.113376
vn -0.665011 0.737624 0.116925
vn -0.700558 0.679260 0.218688
vn -0.757388 0.590776 0.278114
vn -0.821223 0.494019 0.285548
vn -0.878618 0.408828 0.246760
vn -0.921027 0.347418 0.176095
vn -0.945161 0.314241 0.089017
vn -0.951127 0.308795 -0.001751
vn -0.940552 0.328380 -0.086771
vn -0.915489 0.369620 -0.158936
vn -0.878135 0.428872 -0.212008
vn -0.831125 0.501807 -0.239627
vn -0.778294 0.582153 -0.235278
vn -0.725763 0.660163 -0.193526
vn 0.436142 0.814815 -0.381912
vn -0.449079 0.867912 -0.212266
vn -0.417919 0.908484 -0.001198
vn 0.476030 0.879429 0.000012
vn 0.322704 0.630669 -0.705775
vn -0.520390 0.762832 -0.383773
vn 0.152854 0.355016 -0.922280
vn -0.618674 0.612817 -0.491628
vn -0.047484 0.029741 -0.998429
vn -0.728449 0.441757 -0.523654
vn -0.247883 -0.295641 -0.922578
vn -0.834022 0.274350 -0.478685
vn -0.417794 -0.571594 -0.706207
vn -0.921486 0.132953 -0.364949
vn -0.531355 -0.756024 -0.382216
vn -0.979471 0.036185 -0.198310
vn -0.571208 -0.820805 0.000017
vn -0.999996 -0.002720 -0.000787
vn -0.531288 -0.756064 0.382230
vn -0.979263 0.022890 0.201298
vn -0.417695 -0.571681 0.706196
vn -0.918428 0.111908 0.379429
vn -0.247709 -0.295778 0.922581
vn -0.824472 0.254190 0.505601
vn -0.047278 0.029616 0.998443
vn -0.710479 0.430232 0.556885
vn 0.153088 0.354906 0.922283
vn -0.594497 0.612545 0.520924
vn 0.322846 0.630595 0.705776
vn -0.496519 0.770100 0.400518
vn 0.436240 0.814749 0.381941
vn -0.434083 0.874730 0.215450
vn 0.974374 -0.171487 -0.145561
vn 0.511702 0.769017 -0.383111
vn 0.551074 0.834457 0.000037
vn 0.989400 -0.145216 -0.000255
vn 0.932117 -0.245637 -0.266120
vn 0.399614 0.582798 -0.707570
vn 0.870322 -0.354024 -0.342355
vn 0.231985 0.304525 -0.923822
vn 0.799802 -0.477614 -0.363597
vn 0.034482 -0.023183 -0.999136
vn 0.731941 -0.596471 -0.329369
vn -0.162781 -0.350337 -0.922370
vn 0.676498 -0.693492 -0.247829
vn -0.329817 -0.627269 -0.705517
vn 0.640504 -0.756406 -0.132685
vn -0.441382 -0.812107 -0.381661
vn 0.628140 -0.778100 -0.000245
vn -0.480532 -0.876977 0.000031
vn 0.640588 -0.756393 0.132352
vn -0.441403 -0.812100 0.381651
vn 0.676440 -0.693583 0.247732
vn -0.329938 -0.627236 0.705490
vn 0.731827 -0.596572 0.329440
vn -0.162903 -0.350273 0.922373
vn 0.799766 -0.477566 0.363738
vn 0.034348 -0.023103 0.999143
vn 0.870375 -0.353839 0.342412
vn 0.231860 0.304611 0.923825
vn 0.932185 -0.245551 0.265962
vn 0.399513 0.582892 0.707550
vn 0.974418 -0.171569 0.145165
vn 0.511662 0.769038 0.383122
vn 0.854042 -0.520205 -0.000001
s 1
g pCylinder50
usemtl initialShadingGroup
f 1/32/1 2/31/2 18/34/3
f 2/31/2 3/30/4 18/34/3
f 3/30/4 4/29/5 18/34/3
f 4/29/5 5/28/6 18/34/3
f 5/28/6 6/27/7 18/34/3
f 6/27/7 7/26/8 18/34/3
f 7/26/8 8/25/9 18/34/3
f 8/25/9 9/24/10 18/34/3
f 9/24/10 10/23/11 18/34/3
f 10/23/11 11/22/12 18/34/3
f 11/22/12 12/21/13 18/34/3
f 12/21/13 13/20/14 18/34/3
f 13/20/14 14/19/15 18/34/3
f 14/19/15 15/18/16 18/34/3
f 15/18/16 16/33/17 18/34/3
f 16/33/17 1/32/1 18/34/3
f 20/69/18 19/35/19 1/17/1 16/16/17
f 21/67/20 20/69/18 16/16/17 15/15/16
f 22/65/21 21/67/20 15/15/16 14/14/15
f 23/63/22 22/65/21 14/14/15 13/13/14
f 24/61/23 23/63/22 13/13/14 12/12/13
f 25/59/24 24/61/23 12/12/13 11/11/12
f 26/57/25 25/59/24 11/11/12 10/10/11
f 27/55/26 26/57/25 10/10/11 9/9/10
f 28/53/27 27/55/26 9/9/10 8/8/9
f 29/51/28 28/53/27 8/8/9 7/7/8
f 30/49/29 29/51/28 7/7/8 6/6/7
f 31/47/30 30/49/29 6/6/7 5/5/6
f 32/45/31 31/47/30 5/5/6 4/4/5
f 33/43/32 32/45/31 4/4/5 3/3/4
f 34/41/33 33/43/32 3/3/4 2/2/2
f 19/39/19 34/41/33 2/2/2 1/1/1
f 35/36/34 36/68/35 65/66/36 66/149/37
f 36/37/35 35/119/34 38/121/38 37/38/39
f 37/38/39 38/121/38 40/123/40 39/40/41
f 39/40/41 40/123/40 42/125/42 41/42/43
f 41/42/43 42/125/42 44/127/44 43/44/45
f 43/44/45 44/127/44 46/129/46 45/46/47
f 45/46/47 46/129/46 48/131/48 47/48/49
f 47/48/49 48/131/48 50/133/50 49/50/51
f 49/50/51 50/133/50 52/135/52 51/52/53
f 51/52/53 52/135/52 54/137/54 53/54/55
f 53/54/55 54/137/54 56/139/56 55/56/57
f 55/56/57 56/139/56 58/141/58 57/58/59
f 57/58/59 58/141/58 60/143/60 59/60/61
f 59/60/61 60/143/60 62/145/62 61/62/63
f 61/62/63 62/145/62 64/147/64 63/64/65
f 63/64/65 64/147/64 66/149/37 65/66/36
f 36/37/35 37/38/39 34/41/33 19/39/19
f 37/38/39 39/40/41 33/43/32 34/41/33
f 39/40/41 41/42/43 32/45/31 33/43/32
f 41/42/43 43/44/45 31/47/30 32/45/31
f 43/44/45 45/46/47 30/49/29 31/47/30
f 45/46/47 47/48/49 29/51/28 30/49/29
f 47/48/49 49/50/51 28/53/27 29/51/28
f 49/50/51 51/52/53 27/55/26 28/53/27
f 51/52/53 53/54/55 26/57/25 27/55/26
f 53/54/55 55/56/57 25/59/24 26/57/25
f 55/56/57 57/58/59 24/61/23 25/59/24
f 57/58/59 59/60/61 23/63/22 24/61/23
f 59/60/61 61/62/63 22/65/21 23/63/22
f 61/62/63 63/64/65 21/67/20 22/65/21
f 63/64/65 65/66/36 20/69/18 21/67/20
f 65/66/36 36/68/35 19/35/19 20/69/18
f 67/100/66 68/70/67 98/99/68 97/116/69
f 68/71/67 67/100/66 69/101/70 70/72/71
f 70/73/71 69/101/70 71/102/72 72/74/73
f 72/75/73 71/102/72 73/103/74 74/76/75
f 74/77/75 73/103/74 75/104/76 76/78/77
f 76/79/77 75/104/76 77/105/78 78/80/79
f 78/81/79 77/105/78 79/106/80 80/82/81
f 80/83/81 79/106/80 81/107/82 82/84/83
f 82/84/83 81/107/82 83/108/84 84/85/85
f 84/86/85 83/108/84 85/109/86 86/87/87
f 86/88/87 85/109/86 87/110/88 88/89/89
f 88/90/89 87/110/88 89/111/90 90/91/91
f 90/92/91 89/111/90 91/112/92 92/93/93
f 92/94/93 91/112/92 93/113/94 94/95/95
f 94/96/95 93/113/94 95/114/96 96/97/97
f 96/98/97 95/114/96 97/116/69 98/99/68
f 69/101/70 67/100/66 17/115/98
f 71/102/72 69/101/70 17/115/98
f 73/103/74 71/102/72 17/115/98
f 75/104/76 73/103/74 17/115/98
f 77/105/78 75/104/76 17/115/98
f 79/106/80 77/105/78 17/115/98
f 81/107/82 79/106/80 17/115/98
f 83/108/84 81/107/82 17/115/98
f 85/109/86 83/108/84 17/115/98
f 87/110/88 85/109/86 17/115/98
f 89/111/90 87/110/88 17/115/98
f 91/112/92 89/111/90 17/115/98
f 93/113/94 91/112/92 17/115/98
f 95/114/96 93/113/94 17/115/98
f 97/116/69 95/114/96 17/115/98
f 67/100/66 97/116/69 17/115/98
f 68/117/67 70/118/71 38/121/38 35/119/34
f 70/118/71 72/120/73 40/123/40 38/121/38
f 72/120/73 74/122/75 42/125/42 40/123/40
f 74/122/75 76/124/77 44/127/44 42/125/42
f 76/124/77 78/126/79 46/129/46 44/127/44
f 78/126/79 80/128/81 48/131/48 46/129/46
f 80/128/81 82/130/83 50/133/50 48/131/48
f 82/130/83 84/132/85 52/135/52 50/133/50
f 84/132/85 86/134/87 54/137/54 52/135/52
f 86/134/87 88/136/89 56/139/56 54/137/54
f 88/136/89 90/138/91 58/141/58 56/139/56
f 90/138/91 92/140/93 60/143/60 58/141/58
f 92/140/93 94/142/95 62/145/62 60/143/60
f 94/142/95 96/144/97 64/147/64 62/145/62
f 96/144/97 98/146/68 66/149/37 64/147/64
f 98/146/68 68/148/67 35/36/34 66/149/37
