# This file uses centimeters as units for non-parametric coordinates.

mtllib LiquidRed.mtl
g default
v 0.295551 1.426936 -0.351948
v 0.287772 1.414164 -0.374329
v 0.276129 1.395050 -0.389284
v 0.262396 1.372504 -0.394535
v 0.248662 1.349957 -0.389284
v 0.237019 1.330843 -0.374329
v 0.229239 1.318071 -0.351948
v 0.226508 1.313586 -0.325548
v 0.229239 1.318071 -0.299148
v 0.237019 1.330843 -0.276767
v 0.248662 1.349957 -0.261813
v 0.262396 1.372504 -0.256561
v 0.276129 1.395050 -0.261813
v 0.287772 1.414164 -0.276767
v 0.295551 1.426936 -0.299148
v 0.298282 1.431421 -0.325548
v 1.190812 0.789243 -0.325548
v 0.253010 1.360468 -0.325548
v 0.378649 1.451482 -0.384384
v 0.384737 1.461477 -0.325548
v 0.378649 1.451482 -0.266712
v 0.361311 1.423019 -0.216833
v 0.335364 1.380419 -0.183505
v 0.304757 1.330171 -0.171802
v 0.274150 1.279922 -0.183505
v 0.248203 1.237324 -0.216833
v 0.230865 1.208860 -0.266712
v 0.224777 1.198866 -0.325548
v 0.230865 1.208860 -0.384384
v 0.248203 1.237324 -0.434263
v 0.274150 1.279922 -0.467591
v 0.304757 1.330171 -0.479294
v 0.335364 1.380419 -0.467591
v 0.361311 1.423019 -0.434263
v 0.516433 1.523976 -0.442987
v 0.416896 1.505708 -0.415287
v 0.390453 1.462178 -0.491266
v 0.481942 1.467094 -0.542548
v 0.350942 1.397157 -0.541944
v 0.430223 1.382021 -0.609072
v 0.304385 1.320564 -0.559629
v 0.369245 1.281654 -0.632432
v 0.257875 1.244064 -0.541688
v 0.308263 1.181290 -0.609072
v 0.218476 1.179276 -0.490903
v 0.256590 1.096190 -0.542548
v 0.192157 1.136011 -0.415017
v 0.222028 1.039349 -0.442988
v 0.182899 1.120812 -0.325548
v 0.209876 1.019398 -0.325548
v 0.192141 1.135981 -0.236065
v 0.221996 1.039368 -0.208109
v 0.218455 1.179233 -0.160145
v 0.256533 1.096223 -0.108548
v 0.257862 1.244032 -0.109326
v 0.308263 1.181290 -0.042024
v 0.304389 1.320560 -0.091372
v 0.369245 1.281654 -0.018664
v 0.350964 1.397184 -0.109071
v 0.430223 1.382021 -0.042024
v 0.390481 1.462216 -0.159783
v 0.481885 1.467126 -0.108548
v 0.416896 1.505708 -0.235809
v 0.516433 1.523976 -0.208109
v 0.426160 1.520991 -0.325548
v 0.528570 1.543936 -0.325548
v 1.314353 0.992065 -0.423840
v 1.283935 1.050478 -0.442987
v 1.285460 0.944632 -0.507204
v 1.249397 0.993623 -0.542548
v 1.242172 0.873564 -0.563106
v 1.197815 0.908469 -0.609072
v 1.190999 0.789552 -0.583004
v 1.136895 0.808067 -0.632432
v 1.139690 0.705315 -0.563740
v 1.075974 0.707666 -0.609072
v 1.096072 0.633705 -0.508101
v 1.024266 0.622586 -0.542548
v 1.066850 0.585730 -0.424474
v 0.989787 0.565696 -0.442988
v 1.056551 0.568821 -0.325620
v 0.977703 0.545704 -0.325548
v 1.066784 0.585624 -0.226714
v 0.989855 0.565655 -0.208109
v 1.095979 0.633553 -0.142961
v 1.024393 0.622511 -0.108548
v 1.139625 0.705207 -0.087196
v 1.075975 0.707665 -0.042024
v 1.190999 0.789552 -0.067879
v 1.136894 0.808067 -0.018664
v 1.242238 0.873671 -0.087829
v 1.197815 0.908468 -0.042024
v 1.285553 0.944785 -0.143856
v 1.249524 0.993546 -0.108548
v 1.314419 0.992174 -0.227347
v 1.284004 1.050436 -0.208109
v 1.324516 1.008751 -0.325620
v 1.296087 1.070428 -0.325548
vt 0.375000 0.688440
vt 0.390625 0.688440
vt 0.406250 0.688440
vt 0.421875 0.688440
vt 0.437500 0.688440
vt 0.453125 0.688440
vt 0.468750 0.688440
vt 0.484375 0.688440
vt 0.500000 0.688440
vt 0.515625 0.688440
vt 0.531250 0.688440
vt 0.546875 0.688440
vt 0.562500 0.688440
vt 0.578125 0.688440
vt 0.593750 0.688440
vt 0.609375 0.688440
vt 0.625000 0.688440
vt 0.644356 0.783956
vt 0.610485 0.733265
vt 0.559794 0.699394
vt 0.500000 0.687500
vt 0.440206 0.699394
vt 0.389515 0.733265
vt 0.355644 0.783956
vt 0.343750 0.843750
vt 0.355644 0.903544
vt 0.389515 0.954235
vt 0.440206 0.988106
vt 0.500000 1.000000
vt 0.559794 0.988106
vt 0.610485 0.954235
vt 0.644356 0.903544
vt 0.656250 0.843750
vt 0.500000 0.837500
vt 0.625000 0.687534
vt 0.625000 0.660776
vt 0.375423 0.687077
vt 0.391396 0.687071
vt 0.375000 0.687534
vt 0.407238 0.687063
vt 0.390625 0.687534
vt 0.422924 0.687054
vt 0.406250 0.687534
vt 0.438452 0.687047
vt 0.421875 0.687534
vt 0.453844 0.687041
vt 0.437500 0.687534
vt 0.469136 0.687038
vt 0.453125 0.687534
vt 0.484375 0.687038
vt 0.468750 0.687534
vt 0.499614 0.687038
vt 0.484375 0.687534
vt 0.514907 0.687041
vt 0.500000 0.687534
vt 0.530299 0.687046
vt 0.515625 0.687534
vt 0.545828 0.687054
vt 0.531250 0.687534
vt 0.561513 0.687062
vt 0.546875 0.687534
vt 0.577355 0.687071
vt 0.562500 0.687534
vt 0.593327 0.687078
vt 0.578125 0.687534
vt 0.609375 0.687081
vt 0.593750 0.687534
vt 0.625000 0.687075
vt 0.609375 0.687534
vt 0.643852 0.096643
vt 0.643809 0.096437
vt 0.610160 0.046072
vt 0.609938 0.045752
vt 0.559677 0.012165
vt 0.559248 0.011890
vt 0.500000 0.000103
vt 0.499455 0.000109
vt 0.440206 0.011894
vt 0.439780 0.012178
vt 0.389515 0.045765
vt 0.389297 0.046090
vt 0.355644 0.096456
vt 0.355603 0.096663
vt 0.343750 0.156250
vt 0.355603 0.215837
vt 0.355644 0.216044
vt 0.389297 0.266410
vt 0.389515 0.266735
vt 0.439780 0.300322
vt 0.440206 0.300606
vt 0.499455 0.312392
vt 0.500000 0.312388
vt 0.559248 0.300602
vt 0.559677 0.300310
vt 0.609939 0.266723
vt 0.610160 0.266391
vt 0.643809 0.216026
vt 0.643852 0.215814
vt 0.655702 0.156228
vt 0.572185 0.123225
vt 0.555278 0.097849
vt 0.529946 0.080835
vt 0.500000 0.074781
vt 0.469974 0.080650
vt 0.444449 0.097592
vt 0.427349 0.123052
vt 0.421322 0.153147
vt 0.427311 0.183256
vt 0.444395 0.208751
vt 0.469936 0.225723
vt 0.500000 0.231600
vt 0.529984 0.225522
vt 0.555332 0.208462
vt 0.572224 0.183043
vt 0.500000 0.150000
vt 0.578133 0.153125
vt 0.375000 0.367195
vt 0.390625 0.367166
vt 0.375000 0.660776
vt 0.406250 0.367077
vt 0.390625 0.660727
vt 0.421875 0.367004
vt 0.406250 0.660696
vt 0.437500 0.366931
vt 0.421875 0.660647
vt 0.453125 0.366896
vt 0.437500 0.660600
vt 0.468750 0.366842
vt 0.453125 0.660550
vt 0.484375 0.366813
vt 0.468750 0.660531
vt 0.500000 0.366813
vt 0.484375 0.660531
vt 0.515625 0.366842
vt 0.500000 0.660545
vt 0.531250 0.366931
vt 0.515625 0.660574
vt 0.546875 0.367005
vt 0.531250 0.660600
vt 0.562500 0.367077
vt 0.546875 0.660647
vt 0.578125 0.367112
vt 0.562500 0.660696
vt 0.593750 0.367165
vt 0.578125 0.660751
vt 0.609375 0.367195
vt 0.593750 0.660776
vt 0.625000 0.367195
vt 0.609375 0.660782
vn -0.462051 0.863537 -0.202021
vn -0.528973 0.764387 -0.368646
vn -0.855543 0.517732 -0.000000
vn -0.626007 0.620358 -0.472515
vn -0.735621 0.457262 -0.499773
vn -0.840033 0.301466 -0.451069
vn -0.924575 0.174960 -0.338453
vn -0.979102 0.093182 -0.180766
vn -0.997887 0.064969 -0.000000
vn -0.979102 0.093181 0.180766
vn -0.924575 0.174959 0.338453
vn -0.840034 0.301466 0.451066
vn -0.735623 0.457262 0.499770
vn -0.626008 0.620359 0.472514
vn -0.528973 0.764388 0.368644
vn -0.462050 0.863538 0.202020
vn -0.438166 0.898894 -0.000000
vn -0.669961 0.742397 -0.000001
vn -0.683573 0.721521 -0.110164
vn -0.683599 0.721498 0.110152
vn -0.720883 0.664370 0.197332
vn -0.772639 0.584964 0.246669
vn -0.828157 0.499616 0.254047
vn -0.878476 0.422095 0.223867
vn -0.917576 0.361752 0.164893
vn -0.942070 0.323918 0.087068
vn -0.950389 0.311064 -0.000000
vn -0.942086 0.323866 -0.087086
vn -0.917594 0.361672 -0.164966
vn -0.878474 0.422025 -0.224007
vn -0.828118 0.499591 -0.254222
vn -0.772566 0.584993 -0.246829
vn -0.720812 0.664423 -0.197414
vn 0.432031 0.817048 -0.381813
vn -0.436765 0.873311 -0.215789
vn -0.413245 0.910620 -0.000001
vn 0.471880 0.881663 0.000001
vn 0.318627 0.632947 -0.705589
vn -0.503376 0.767962 -0.396039
vn 0.148797 0.357380 -0.922030
vn -0.601378 0.612881 -0.512564
vn -0.051523 0.032221 -0.998152
vn -0.714716 0.433379 -0.548965
vn -0.251914 -0.293032 -0.922318
vn -0.825622 0.257487 -0.502044
vn -0.421823 -0.568879 -0.706004
vn -0.917837 0.111076 -0.381100
vn -0.535391 -0.753229 -0.382102
vn -0.978603 0.014622 -0.205237
vn -0.575260 -0.817970 0.000014
vn -0.999820 -0.018977 -0.000103
vn -0.535363 -0.753239 0.382123
vn -0.978649 0.014706 0.205012
vn -0.421809 -0.568911 0.705987
vn -0.917868 0.111202 0.380990
vn -0.251864 -0.293103 0.922310
vn -0.825582 0.257519 0.502094
vn -0.051470 0.032188 0.998156
vn -0.714656 0.433342 0.549074
vn 0.148881 0.357366 0.922022
vn -0.601383 0.612832 0.512616
vn 0.318640 0.632949 0.705580
vn -0.503412 0.768014 0.395893
vn 0.432057 0.817025 0.381834
vn -0.436823 0.873334 0.215575
vn 0.974066 -0.173803 -0.144870
vn 0.514061 0.767475 -0.383045
vn 0.553433 0.832894 0.000022
vn 0.989029 -0.147718 -0.000251
vn 0.932008 -0.247491 -0.264783
vn 0.401904 0.581320 -0.707489
vn 0.870547 -0.355341 -0.340413
vn 0.234243 0.303078 -0.923728
vn 0.800406 -0.478301 -0.361357
vn 0.036692 -0.024515 -0.999026
vn 0.732885 -0.596444 -0.327312
vn -0.160592 -0.351577 -0.922282
vn 0.677718 -0.692825 -0.246357
vn -0.327721 -0.628446 -0.705446
vn 0.642043 -0.755233 -0.131928
vn -0.439276 -0.813278 -0.381596
vn 0.629822 -0.776740 -0.000234
vn -0.478445 -0.878118 0.000026
vn 0.642246 -0.755156 0.131376
vn -0.439313 -0.813238 0.381638
vn 0.677951 -0.692731 0.245982
vn -0.327786 -0.628450 0.705413
vn 0.732917 -0.596410 0.327304
vn -0.160763 -0.351550 0.922262
vn 0.800368 -0.478256 0.361500
vn 0.036568 -0.024444 0.999032
vn 0.870555 -0.355409 0.340321
vn 0.234137 0.303219 0.923709
vn 0.932069 -0.247751 0.264322
vn 0.401852 0.581383 0.707466
vn 0.974112 -0.174021 0.144299
vn 0.513998 0.767493 0.383093
vn 0.854042 -0.520205 0.000000
s 1
g pCylinder49
usemtl initialShadingGroup
f 1/32/1 2/31/2 18/34/3
f 2/31/2 3/30/4 18/34/3
f 3/30/4 4/29/5 18/34/3
f 4/29/5 5/28/6 18/34/3
f 5/28/6 6/27/7 18/34/3
f 6/27/7 7/26/8 18/34/3
f 7/26/8 8/25/9 18/34/3
f 8/25/9 9/24/10 18/34/3
f 9/24/10 10/23/11 18/34/3
f 10/23/11 11/22/12 18/34/3
f 11/22/12 12/21/13 18/34/3
f 12/21/13 13/20/14 18/34/3
f 13/20/14 14/19/15 18/34/3
f 14/19/15 15/18/16 18/34/3
f 15/18/16 16/33/17 18/34/3
f 16/33/17 1/32/1 18/34/3
f 20/69/18 19/35/19 1/17/1 16/16/17
f 21/67/20 20/69/18 16/16/17 15/15/16
f 22/65/21 21/67/20 15/15/16 14/14/15
f 23/63/22 22/65/21 14/14/15 13/13/14
f 24/61/23 23/63/22 13/13/14 12/12/13
f 25/59/24 24/61/23 12/12/13 11/11/12
f 26/57/25 25/59/24 11/11/12 10/10/11
f 27/55/26 26/57/25 10/10/11 9/9/10
f 28/53/27 27/55/26 9/9/10 8/8/9
f 29/51/28 28/53/27 8/8/9 7/7/8
f 30/49/29 29/51/28 7/7/8 6/6/7
f 31/47/30 30/49/29 6/6/7 5/5/6
f 32/45/31 31/47/30 5/5/6 4/4/5
f 33/43/32 32/45/31 4/4/5 3/3/4
f 34/41/33 33/43/32 3/3/4 2/2/2
f 19/39/19 34/41/33 2/2/2 1/1/1
f 35/36/34 36/68/35 65/66/36 66/149/37
f 36/37/35 35/119/34 38/121/38 37/38/39
f 37/38/39 38/121/38 40/123/40 39/40/41
f 39/40/41 40/123/40 42/125/42 41/42/43
f 41/42/43 42/125/42 44/127/44 43/44/45
f 43/44/45 44/127/44 46/129/46 45/46/47
f 45/46/47 46/129/46 48/131/48 47/48/49
f 47/48/49 48/131/48 50/133/50 49/50/51
f 49/50/51 50/133/50 52/135/52 51/52/53
f 51/52/53 52/135/52 54/137/54 53/54/55
f 53/54/55 54/137/54 56/139/56 55/56/57
f 55/56/57 56/139/56 58/141/58 57/58/59
f 57/58/59 58/141/58 60/143/60 59/60/61
f 59/60/61 60/143/60 62/145/62 61/62/63
f 61/62/63 62/145/62 64/147/64 63/64/65
f 63/64/65 64/147/64 66/149/37 65/66/36
f 36/37/35 37/38/39 34/41/33 19/39/19
f 37/38/39 39/40/41 33/43/32 34/41/33
f 39/40/41 41/42/43 32/45/31 33/43/32
f 41/42/43 43/44/45 31/47/30 32/45/31
f 43/44/45 45/46/47 30/49/29 31/47/30
f 45/46/47 47/48/49 29/51/28 30/49/29
f 47/48/49 49/50/51 28/53/27 29/51/28
f 49/50/51 51/52/53 27/55/26 28/53/27
f 51/52/53 53/54/55 26/57/25 27/55/26
f 53/54/55 55/56/57 25/59/24 26/57/25
f 55/56/57 57/58/59 24/61/23 25/59/24
f 57/58/59 59/60/61 23/63/22 24/61/23
f 59/60/61 61/62/63 22/65/21 23/63/22
f 61/62/63 63/64/65 21/67/20 22/65/21
f 63/64/65 65/66/36 20/69/18 21/67/20
f 65/66/36 36/68/35 19/35/19 20/69/18
f 67/100/66 68/70/67 98/99/68 97/116/69
f 68/71/67 67/100/66 69/101/70 70/72/71
f 70/73/71 69/101/70 71/102/72 72/74/73
f 72/75/73 71/102/72 73/103/74 74/76/75
f 74/77/75 73/103/74 75/104/76 76/78/77
f 76/79/77 75/104/76 77/105/78 78/80/79
f 78/81/79 77/105/78 79/106/80 80/82/81
f 80/83/81 79/106/80 81/107/82 82/84/83
f 82/84/83 81/107/82 83/108/84 84/85/85
f 84/86/85 83/108/84 85/109/86 86/87/87
f 86/88/87 85/109/86 87/110/88 88/89/89
f 88/90/89 87/110/88 89/111/90 90/91/91
f 90/92/91 89/111/90 91/112/92 92/93/93
f 92/94/93 91/112/92 93/113/94 94/95/95
f 94/96/95 93/113/94 95/114/96 96/97/97
f 96/98/97 95/114/96 97/116/69 98/99/68
f 69/101/70 67/100/66 17/115/98
f 71/102/72 69/101/70 17/115/98
f 73/103/74 71/102/72 17/115/98
f 75/104/76 73/103/74 17/115/98
f 77/105/78 75/104/76 17/115/98
f 79/106/80 77/105/78 17/115/98
f 81/107/82 79/106/80 17/115/98
f 83/108/84 81/107/82 17/115/98
f 85/109/86 83/108/84 17/115/98
f 87/110/88 85/109/86 17/115/98
f 89/111/90 87/110/88 17/115/98
f 91/112/92 89/111/90 17/115/98
f 93/113/94 91/112/92 17/115/98
f 95/114/96 93/113/94 17/115/98
f 97/116/69 95/114/96 17/115/98
f 67/100/66 97/116/69 17/115/98
f 68/117/67 70/118/71 38/121/38 35/119/34
f 70/118/71 72/120/73 40/123/40 38/121/38
f 72/120/73 74/122/75 42/125/42 40/123/40
f 74/122/75 76/124/77 44/127/44 42/125/42
f 76/124/77 78/126/79 46/129/46 44/127/44
f 78/126/79 80/128/81 48/131/48 46/129/46
f 80/128/81 82/130/83 50/133/50 48/131/48
f 82/130/83 84/132/85 52/135/52 50/133/50
f 84/132/85 86/134/87 54/137/54 52/135/52
f 86/134/87 88/136/89 56/139/56 54/137/54
f 88/136/89 90/138/91 58/141/58 56/139/56
f 90/138/91 92/140/93 60/143/60 58/141/58
f 92/140/93 94/142/95 62/145/62 60/143/60
f 94/142/95 96/144/97 64/147/64 62/145/62
f 96/144/97 98/146/68 66/149/37 64/147/64
f 98/146/68 68/148/67 35/36/34 66/149/37
